<svg id="Layer_1" data-name="Layer 1" xmlns="http://www.w3.org/2000/svg" viewBox="0 0 50 50"><title>icons</title><path d="M8.98,44.5l-1.022-.034A2.479,2.479,0,0,1,6.351,42.98l-0.065-.152,0.009-.971L6.4,41.148c0.079-.514.159-1.027,0.23-1.542l0.3-2.188c0.221-1.636.442-3.271,0.682-4.9a2.475,2.475,0,0,1,.658-1.257C8.875,30.62,9.5,30,10.122,29.383l5.211-5.206q7.3-7.3,14.592-14.6A5.506,5.506,0,0,1,32.866,7.8l0.14-.012L34.119,7.8a5.7,5.7,0,0,1,2.992,1.873C38.4,11,39.74,12.339,41.087,13.648a5.7,5.7,0,0,1,1.9,3.016L43,16.817l-0.012,1.1a5.587,5.587,0,0,1-1.827,2.99C34.436,27.611,27.273,34.76,20.122,41.963a4.586,4.586,0,0,1-2.889,1.378c-1.993.238-4.018,0.518-5.977,0.79l-2.118.295ZM8.325,42.884h0.3a0.961,0.961,0,0,1,.193-0.046l2.212-.3c1.966-.273,4-0.554,6.006-0.794a2.991,2.991,0,0,0,1.936-.913C26.131,33.621,33.3,26.47,40.02,19.763A4.216,4.216,0,0,0,41.386,17.7V16.9a4.386,4.386,0,0,0-1.423-2.094c-1.358-1.32-2.707-2.669-4.009-4.01a4.219,4.219,0,0,0-2.07-1.4h-0.8a4.014,4.014,0,0,0-2.014,1.315q-7.288,7.312-14.594,14.607l-5.216,5.211c-0.612.607-1.225,1.215-1.819,1.839a0.894,0.894,0,0,0-.231.379C8.969,34.375,8.749,36,8.529,37.634l-0.3,2.192C8.159,40.35,8.079,40.872,8,41.394l-0.1.644v0.441A0.841,0.841,0,0,0,8.325,42.884Z" fill="#fff"/><rect x="30.779" y="12.77" width="1.613" height="12.908" transform="translate(-4.287 28.188) rotate(-45.356)" fill="#fff"/></svg>